<svg id="Capa_1" enable-background="new 0 0 512 512" height="512" viewBox="0 0 512 512" width="512" xmlns="http://www.w3.org/2000/svg"><g><path d="m173.129 64.999 62.68 150.528-62.68 205.528-88.57 3.918-56.63-134.309 51.76-143.619c.89-2.465 2.41-4.65 4.41-6.354z" fill="#c76e59"/><path d="m408.15 149.791v58.315c-14.8 16.626-35.2 32.029-62.98 40.297l18.61 10.583c9.13 3.718 15.44 11.956 16.63 21.877 1.25 10.442-3.48 20.414-12.33 26.036-13.2 8.358-35.08 10.903-51.12 11.555-15.93.661-33.2-.271-49.08-2.555l-32.07 102.39-62.68 2.766v-356.056l8.41-7.155c2.71-2.305 6.15-3.568 9.7-3.568h36.52c26.94 0 52.59 12.968 68.6 34.675l16.38 22.208h48.69z" fill="#a24f3e"/><g><path d="m173.129 28.771 19.221 82.387-19.221 90.334c-2.67.431-5.41.641-8.2.621-32.68 0-72.79-28.231-91.61-49.186-12.68-14.11-13.79-34.845-2.71-50.439 19.36-27.249 44.08-50.278 73.47-68.467 8.75-5.411 19.16-7.214 29.05-5.25z" fill="#8c4d4d"/></g><ellipse cx="259.489" cy="144.499" fill="#17444d" rx="15" ry="15.032"/><path d="m173.129 400.27 20.031 41.865-20.031 35.672c-43.93-10.793-97.79-31.688-144.25-72.035-8.98-7.807-17.41-16.095-25.05-24.643-3.68-4.119-4.81-9.921-2.94-15.123l24.31-67.656c.06-.21.11-.411.18-.621l2.55-7.065c16.66 27.179 57.48 77.106 145.2 109.606z" fill="#6cf"/><g><path d="m497 277.775h-39c-8.284 0-15-6.73-15-15.032s6.716-15.032 15-15.032h39c8.284 0 15 6.73 15 15.032 0 8.301-6.716 15.032-15 15.032z" fill="#d9b9c3"/></g><g><path d="m463.711 221.443c-3.839 0-7.678-1.467-10.606-4.403-5.858-5.871-5.858-15.389 0-21.259l27.578-27.637c5.858-5.87 15.356-5.872 21.213 0 5.858 5.871 5.858 15.389 0 21.259l-27.578 27.637c-2.929 2.935-6.769 4.403-10.607 4.403z" fill="#d9b9c3"/></g><g><path d="m491.289 361.305c-3.839 0-7.678-1.467-10.606-4.403l-27.578-27.637c-5.858-5.87-5.858-15.388 0-21.259 5.857-5.87 15.355-5.872 21.213 0l27.578 27.637c5.858 5.87 5.858 15.388 0 21.259-2.929 2.935-6.768 4.403-10.607 4.403z" fill="#d9b9c3"/></g><path d="m435.68 164.914c-5.58 12.587-14.33 28.381-27.53 43.193-28.83-14.371-48.63-44.185-48.63-78.639 0-6.274.66-12.407 1.91-18.309h39.41c12.95 0 24.89 6.494 31.95 17.367 7.07 10.893 8.15 24.492 2.89 36.388z" fill="#17444d"/><path d="m200.919 183.985c-6.54 9.831-16.5 15.674-27.79 17.508v-172.722c2.73.541 5.43 1.383 8.04 2.505 12.04 5.191 20.83 15.964 23.51 28.822 12.49 59.969 11.23 101.649-3.76 123.887z" fill="#733333"/><path d="m235.809 418.289-17.23 55.169c-1.99 6.354-7.86 10.543-14.31 10.543-.85 0-1.7-.07-2.56-.22-8.86-1.533-18.45-3.487-28.58-5.973v-77.538c18.69 6.935 39.51 13.068 62.68 18.019z" fill="#39f"/></g></svg>