<svg id="Capa_1" enable-background="new 0 0 512 512" height="512" viewBox="0 0 512 512" width="512" xmlns="http://www.w3.org/2000/svg"><g><path d="m88.128 145.097h-14.442c-11.067 0-20.038 9.025-20.038 20.159v15.105c0 11.133 8.972 20.159 20.038 20.159h14.442l10.302-27.711z" fill="#ffbd86"/><path d="m243.167 145.097h14.442c11.067 0 20.039 9.025 20.039 20.159v15.105c0 11.133-8.972 20.159-20.039 20.159h-14.442l-10.302-27.711z" fill="#fed2a4"/><path d="m54.791 325.3 57.575-8.319c7.608-1.099 98.955-1.099 106.563 0l36.971 8.319c31.445 4.543 65.093 31.644 65.093 63.602v80.503l-27.79 10.364h-285.992c-3.983 0-7.211-3.248-7.211-7.255v-83.612c0-31.958 23.346-59.059 54.791-63.602z" fill="#685e68"/><g fill="#554e56"><path d="m276.504 325.3-57.575-8.319c-.033-.004-.065-.01-.097-.015.032.005.064.011.097.015-7.274 4.895-14.548 8.786-21.823 11.676l48.492 7.007c31.445 4.543 54.791 31.644 54.791 63.602v80.503h30.906v-90.866c0-31.959-23.347-59.06-54.791-63.603z"/><path d="m117.647 359.327c-4.267 0-7.727 3.479-7.727 7.773v64.383c0 4.293 3.459 7.773 7.727 7.773 4.267 0 7.726-3.48 7.726-7.773v-64.383c0-4.293-3.459-7.773-7.726-7.773z"/><path d="m213.648 359.327c-4.267 0-7.727 3.479-7.727 7.773v64.383c0 4.293 3.459 7.773 7.727 7.773 4.267 0 7.726-3.48 7.726-7.773v-64.383c0-4.293-3.459-7.773-7.726-7.773z"/></g><ellipse cx="165.646" cy="16.097" fill="#685e68" rx="16.001" ry="16.097"/><path d="m251.346 103.833h-181.699v-10.364c0-35.558 28.654-64.383 64-64.383h31.999 32.002c35.346 0 53.698 39.189 53.698 74.747z" fill="#7a6d79"/><path d="m197.648 29.086h-30.906c35.346 0 64 28.825 64 64.383l15.488 10.364 15.418-10.364c0-35.558-28.654-64.383-64-64.383z" fill="#685e68"/><path d="m116.139 270.522h68.111l20.604 1.036c25.677 0 46.492 19.904 46.492 45.734 0 20.131-12.805 38.004-31.789 44.37l-53.911 16.352h-15.453l-48.757-16.351c-18.984-6.366-31.789-24.239-31.789-44.37v-.001c0-25.83 20.815-46.77 46.492-46.77z" fill="#7a6d79"/><path d="m215.156 270.522h-30.906c25.677 0 46.492 20.94 46.492 46.77 0 20.131-12.805 38.004-31.789 44.37l-48.76 16.351 15.453 5.182 64.213-21.534c18.984-6.366 31.789-24.239 31.789-44.37 0-25.829-20.815-46.769-46.492-46.769z" fill="#685e68"/><path d="m208.627 316.981c-7.608-1.099-13.256-7.656-13.256-15.388v-48.793h-69.749v48.793c0 4.127-3.777 8.233-7.299 11.164-2.728 2.27-2.366 6.618.689 8.417 26.032 15.33 52.063 17.824 78.094 7.483 7.274-2.89 4.247-6.782 11.521-11.676z" fill="#fed2a4"/><path d="m210.745 321.7c3.156-1.788 3.571-6.265.725-8.519-3.009-2.383-5.796-6.077-5.796-11.588v-48.793l-30.906 10.364v48.793c0 7.732 5.648 14.288 13.256 15.387l9.083 1.312c3.649-1.449 9.106-4.388 13.638-6.956z" fill="#ffbd86"/><path d="m98.43 109.554-10.302 74.801v24.946c0 37.686 26.572 69.128 61.897 76.4 5.046 1.039 10.271-1.525 15.623-1.525 23.523-.549 67.218-31.806 67.218-74.875v-99.747c-45.52.022-88.917.022-134.436 0z" fill="#7a6d79"/><path d="m88.128 134.733h144.738v49.623c-10.725 11.194-10.72 18.018-20.604 20.6-11.508 3.006-22.455.26-32.86-8.037-7.239-5.773-17.452-6.094-24.825-.499-21.238 16.116-43.38 12.247-66.449-12.064z" fill="#fed2a4"/><path d="m243.167 109.555c-9.596.004-20.013.008-30.906.01v35.532h30.906z" fill="#3f3f3f"/><path d="m212.261 204.956v4.346c0 37.746-26.658 69.229-62.067 76.434 4.994 1.016 10.161 1.55 15.453 1.55 42.813 0 77.52-34.915 77.52-77.984v-24.946c-4.906 5.121-9.722-1.037-14.45 2.267-5.609 3.919-11.093 16.932-16.456 18.333z" fill="#685e68"/><path d="m212.261 145.097v59.859c9.883-2.582 20.181-9.406 30.906-20.6v-39.259l-15.453-10.364z" fill="#ffbd86"/><path d="m267.342 109.013v20.541c0 8.581-6.912 14.509-15.453 14.509l-20.604 1.036h-15.607l-7.727-10.364-7.726 10.364h-26.847l-7.726-10.364-7.726 10.364h-26.857l-7.726-10.364-7.727 10.364h-19.76l-7.729-10.364-7.723 10.365h-11.302c-8.54 0-15.453-6.964-15.453-15.546v-20.541c0-8.591 6.912-15.546 15.453-15.546h11.301l7.724 10.364 7.729-10.364h19.759l7.727 10.364 7.726-10.364h26.857l7.726 10.364 7.726-10.364h26.847l7.726 10.364 7.727-10.364h15.607l20.604 1.036c8.541.001 15.454 5.919 15.454 14.51z" fill="#685e68"/><path d="m262.195 93.466h-30.906c8.534 0 15.453 6.96 15.453 15.546v20.54c0 8.585-6.918 15.546-15.453 15.546h30.906c8.534 0 15.453-6.96 15.453-15.546v-20.54c0-8.586-6.919-15.546-15.453-15.546z" fill="#554e56"/><g><g><path d="m80.404 93.468h15.453v51.632h-15.453z" fill="#554e56"/></g></g><g><g><path d="m115.615 93.468h15.453v51.632h-15.453z" fill="#554e56"/></g></g><g><g><path d="m157.925 93.468h15.453v51.632h-15.453z" fill="#554e56"/></g></g><g><g><path d="m200.225 93.468h15.453v51.632h-15.453z" fill="#554e56"/></g></g><path d="m414.722 278.184v-29.387c2.551-11.702 8.499-20.695 19.194-25.902 5.972-2.907 9.855-8.92 9.855-15.623 0-9.452-7.528-16.104-16.872-16.195l-20.604-1.036h-52.468c-9.345.091-16.872 7.779-16.872 17.232 0 6.703 3.884 12.716 9.855 15.623 10.695 5.207 16.642 14.2 19.193 25.902v29.387c-53.305 26.963-86.976 82.074-86.976 142.357.001 50.51 23.035 91.458 72.973 91.458h65.094l20.604-.203c49.938 0 64-40.745 64-91.257 0-60.283-33.671-115.393-86.976-142.356z" fill="#ccf59e"/><path d="m425.024 278.184v-29.387c2.551-11.702 8.499-20.695 19.194-25.902 5.972-2.907 9.855-8.92 9.855-15.623 0-9.452-7.528-17.14-16.872-17.232h-30.906c9.344.092 16.872 7.78 16.872 17.232 0 6.703-3.884 12.716-9.856 15.623-10.695 5.207-16.642 14.2-19.193 25.902v29.387c53.305 26.964 86.976 82.074 86.976 142.357 0 50.512-14.062 91.459-64 91.459h30.906c49.938 0 64-40.948 64-91.459 0-60.283-33.671-115.394-86.976-142.357z" fill="#b3e69e"/><path d="m433.101 285.633-20.604 1.036h-64.932c-8.865 0-16.051-7.229-16.051-16.147s7.186-16.147 16.051-16.147h64.932l20.604 1.036c8.865 0 16.051 6.193 16.051 15.111s-7.187 15.111-16.051 15.111z" fill="#efedef"/><path d="m443.403 254.374h-30.906c8.865 0 16.051 7.23 16.051 16.147 0 8.918-7.186 16.147-16.051 16.147h30.906c8.865 0 16.051-7.229 16.051-16.147 0-8.917-7.187-16.147-16.051-16.147z" fill="#d7d0d6"/><path d="m132.287 160.632c-4.267 0-7.726 3.479-7.726 7.773v10.202c0 4.293 3.459 7.773 7.726 7.773s7.726-3.479 7.726-7.773v-10.202c.001-4.294-3.459-7.773-7.726-7.773z" fill="#554e56"/><path d="m206.582 168.404c0-4.293-3.459-7.773-7.726-7.773s-7.727 3.479-7.727 7.773v10.202c0 4.293 3.459 7.773 7.727 7.773 4.267 0 7.726-3.479 7.726-7.773z" fill="#554e56"/><path d="m423.478 415.285c0-13.106-10.599-23.768-23.627-23.768h-8.734c-4.507 0-8.174-3.689-8.174-8.223s3.667-8.222 8.174-8.222h7.803c2.955 0 5.51 1.913 6.359 4.76 1.226 4.112 5.532 6.447 9.621 5.211 4.087-1.234 6.406-5.566 5.18-9.678-2.404-8.062-8.922-13.873-16.87-15.425v-9.508c0-4.293-3.459-7.773-7.726-7.773s-7.727 3.48-7.727 7.773v9.335c-11.442 1.645-20.267 11.569-20.267 23.528 0 13.106 10.599 23.769 23.626 23.769h8.734c4.507 0 8.174 3.689 8.174 8.223s-3.667 8.222-8.174 8.222h-9.85c-2.955 0-5.51-1.913-6.359-4.76-1.226-4.112-5.532-6.447-9.621-5.211-4.087 1.234-6.406 5.566-5.18 9.679 2.608 8.745 10.054 14.841 18.918 15.726v9.206c0 4.293 3.459 7.773 7.727 7.773 4.267 0 7.726-3.479 7.726-7.773v-9.334c11.441-1.648 20.267-11.572 20.267-23.53z" fill="#685e68"/></g></svg>