<?xml version="1.0" encoding="iso-8859-1"?>
<!-- Generator: Adobe Illustrator 19.0.0, SVG Export Plug-In . SVG Version: 6.00 Build 0)  -->
<svg version="1.1" id="Capa_1" xmlns="http://www.w3.org/2000/svg" xmlns:xlink="http://www.w3.org/1999/xlink" x="0px" y="0px"
	 viewBox="0 0 512 512" style="enable-background:new 0 0 512 512;" xml:space="preserve">
<path style="fill:#D48748;" d="M335.815,476.342c5.534,0,10.036,4.952,10.036,11.038v4.576c0,2.068-0.59,4.064-1.702,5.822h30.496
	c0.973-1.729,1.541-3.709,1.541-5.822v-4.576c0-6.621-4.967-12.038-11.038-12.038c-6.07,0-11.039-5.418-11.039-12.04v-41.82
	c-7.7,4.362-16.594,6.867-26.068,6.867h-3.265c-0.553,0-1,0.448-1,1v33.952C323.775,470.492,329.176,476.342,335.815,476.342z"/>
<path style="fill:#0481BF;" d="M98.992,406.692v-25.119c0-2.791-2.284-5.075-5.075-5.075H73.255c-2.791,0-5.075,2.284-5.075,5.075
	v25.119H98.992z"/>
<path style="fill:#92DEEE;" d="M117.48,497.778v-87.609c0-3.431-2.819-6.237-6.267-6.237H55.959c-3.446,0-6.266,2.807-6.266,6.237
	v87.61h67.787V497.778z"/>
<rect x="49.693" y="437.579" style="fill:#0481BF;" width="67.786" height="60.192"/>
<path style="opacity:0.1;fill:#15004D;enable-background:new    ;" d="M70.998,497.778v-87.609c0-3.431,2.818-6.237,6.265-6.237
	H55.959c-3.446,0-6.266,2.807-6.266,6.237v87.61h21.305V497.778z"/>
<ellipse style="fill:#FFFFFF;" cx="83.59" cy="448.083" rx="17.544" ry="17.465"/>
<path style="fill:#FFB98A;" d="M291.712,88.235h-6.992v33.146c0,4.731-0.473,9.352-1.359,13.825h8.351
	c8.453,0,15.371-6.913,15.371-15.362v-16.247C307.083,95.148,300.165,88.235,291.712,88.235z"/>
<path style="fill:#F7931E;" d="M251.356,181.946c-0.129-0.091-0.255-0.175-0.384-0.265c-10.574,6.473-22.975,10.205-36.226,10.205
	c-13.253,0-25.788-3.783-36.497-10.397c-21.103,10.311-35.635,31.905-35.635,56.886v53.227l21.224-21.128
	c1.797-1.789,4.188-2.774,6.73-2.774c2.547,0,4.942,0.988,6.743,2.782l6.068,6.04c1.568,1.561,2.521,3.568,2.742,5.732
	c4.293,0.408,8.356,1.963,11.862,4.58c0.174,0.13,0.385,0.199,0.598,0.199c0.077,0,0.154-0.009,0.231-0.027
	c0.288-0.068,0.531-0.261,0.664-0.526c3.802-7.606,11.456-12.51,19.976-12.799c0.271-0.009,0.539-0.014,0.808-0.014
	c9.524,0,18.217,5.964,21.629,14.84c0.13,0.338,0.433,0.58,0.792,0.631c0.047,0.007,0.095,0.01,0.142,0.01
	c0.309,0,0.604-0.143,0.795-0.393c4.315-5.657,10.871-9.041,17.989-9.285c0.273-0.009,0.545-0.014,0.816-0.014
	c5.225,0,10.261,1.74,14.383,4.911V220.43l66.372,14.045c-0.404-1.113-0.637-2.31-0.637-3.563v-8.542
	c0.001-5.789,4.71-10.484,10.52-10.483c1.585,0,7.43,0,13.978,0L251.356,181.946z"/>
<g style="opacity:0.1;">
	<path d="M163.372,270.94v-32.565c0-21.064,10.338-39.714,26.228-51.23c-3.961-1.544-7.759-3.439-11.35-5.656
		c-21.103,10.311-35.635,31.905-35.635,56.886v53.227L163.372,270.94z"/>
</g>
<path style="fill:#FFB98A;" d="M214.746,191.886c-6.828,0-13.463-1.017-19.76-2.892v5.524c0,10.866,8.848,19.674,19.763,19.674
	s19.763-8.808,19.763-19.674v-5.515C228.24,190.868,221.611,191.886,214.746,191.886z"/>
<path style="fill:#FFD5B3;" d="M219.976,87.235c-1.155,0-2.274-0.417-3.147-1.174l-20.344-17.658
	c-0.183-0.159-0.416-0.245-0.655-0.245c-0.038,0-0.075,0.002-0.113,0.006c-0.278,0.032-0.53,0.179-0.695,0.405l-12.15,16.696
	c-0.898,1.232-2.347,1.969-3.875,1.969h-35.217v1h-2.983c-8.453,0-15.371,6.913-15.371,15.362v16.249
	c0,8.449,6.918,15.362,15.371,15.362h4.322c6.394,32.874,35.133,57.681,69.631,57.681c39.195,0,70.974-32.013,70.974-71.506V87.235
	H219.976z"/>
<g>
	<path style="fill:#A75436;" d="M219.54,137.631h-2.596c-4.143,0-7.503-3.359-7.503-7.503c0-3.815,2.848-6.966,6.533-7.441v-2.721
		c0-4.144,3.359-7.503,7.503-7.503s7.503,3.359,7.503,7.503v6.195C230.981,132.486,225.849,137.631,219.54,137.631z"/>
	<path style="fill:#A75436;" d="M254.683,124.227c-4.144,0-7.503-3.359-7.503-7.503v-9.251c0-4.144,3.359-7.503,7.503-7.503
		c4.143,0,7.503,3.359,7.503,7.503v9.251C262.185,120.868,258.826,124.227,254.683,124.227z"/>
	<path style="fill:#A75436;" d="M189.381,124.227c-4.144,0-7.503-3.359-7.503-7.503v-9.251c0-4.144,3.359-7.503,7.503-7.503
		s7.503,3.359,7.503,7.503v9.251C196.884,120.868,193.524,124.227,189.381,124.227z"/>
	<path style="fill:#A75436;" d="M221.145,172.208c-13.47,0-25.419-8.072-30.442-20.563c-1.547-3.844,0.317-8.214,4.162-9.761
		c3.844-1.546,8.214,0.316,9.761,4.162c2.725,6.777,9.21,11.157,16.52,11.157c7.312,0,13.797-4.38,16.525-11.158
		c1.546-3.844,5.918-5.707,9.761-4.161c3.844,1.547,5.707,5.917,4.161,9.761C246.566,164.137,234.614,172.208,221.145,172.208z"/>
</g>
<g>
	<path style="fill:#D48748;" d="M237.708,475.342c-6.071,0-11.038-5.418-11.038-12.04v-36.332H196.95v36.332
		c0,7.191,5.4,13.041,12.038,13.041c5.536,0,10.04,4.952,10.04,11.038v4.576c0,2.068-0.59,4.064-1.703,5.822h29.882
		c0.973-1.729,1.541-3.709,1.541-5.822v-4.576C248.747,480.759,243.78,475.342,237.708,475.342z"/>
	<path style="fill:#D48748;" d="M360.161,353.979c-3.807,0-7.645-0.418-11.407-1.241c-0.072-0.016-0.143-0.023-0.215-0.023
		c-0.436,0-0.835,0.288-0.96,0.725c-2.504,8.74-10.625,14.843-19.75,14.843c-11.333,0-20.554-9.176-20.554-20.456V308.76h-112.13
		c-29.162,0-52.887,23.615-52.887,52.641v14.305c0,17.707,8.874,34.125,23.738,43.919c0.281,0.185,0.45,0.499,0.45,0.835v71.495
		c0,2.068,0.589,4.064,1.703,5.822h50.538c1.112-1.758,1.703-3.754,1.703-5.822v-4.576c0-6.086-4.504-11.038-10.04-11.038
		c-6.638,0-12.038-5.85-12.038-13.041v-33.952c0-0.552,0.448-1,1-1h92.825c0.553,0,1,0.448,1,1v62.608
		c0,2.068,0.59,4.064,1.701,5.822h50.537c1.111-1.758,1.702-3.753,1.702-5.822v-4.576c0-6.086-4.502-11.038-10.036-11.038
		c-6.639,0-12.04-5.85-12.04-13.041V429.35c0-0.552,0.447-1,1-1h3.265c29.163,0,52.888-23.616,52.888-52.642v-14.305
		c0-2.52-0.19-4.996-0.535-7.423L360.161,353.979L360.161,353.979z"/>
</g>
<g style="opacity:0.1;">
	<path d="M186.097,420.461c0-0.336-0.169-0.65-0.45-0.835c-14.863-9.794-23.738-26.213-23.738-43.919v-14.305
		c0-29.027,23.725-52.641,52.887-52.641h-19.652c-29.162,0-52.887,23.615-52.887,52.641v14.305c0,17.707,8.874,34.125,23.738,43.919
		c0.281,0.185,0.45,0.499,0.45,0.835v71.495c0,2.068,0.589,4.064,1.703,5.822h19.652c-1.112-1.758-1.703-3.754-1.703-5.822V420.461z
		"/>
</g>
<g>
	<path style="fill:#92DEEE;" d="M306.273,284.647c0-4.751,0.627-9.353,1.792-13.739c-2.425-0.711-4.992-1.079-7.657-0.988
		c-9.786,0.333-17.994,6.417-21.51,14.871c-4.571-4.115-10.68-6.545-17.323-6.319c-7.694,0.264-14.433,4.018-18.75,9.679
		c-3.589-9.336-12.807-15.829-23.405-15.468c-9.192,0.313-17.008,5.693-20.837,13.352c-4.331-3.233-9.75-5.082-15.581-4.883
		c-13.573,0.465-24.201,11.794-23.736,25.306c0.071,2.053,0.422,4.025,0.966,5.914c-2.658-0.882-5.505-1.342-8.47-1.241
		c-13.352,0.455-23.805,11.599-23.346,24.891c0.456,13.291,11.65,23.695,25.003,23.24c7.897-0.27,14.757-4.295,18.969-10.275
		c2.46,12.422,13.666,21.592,26.788,21.145c11.303-0.386,20.698-7.796,24.108-17.871c5.039,6.033,12.722,9.771,21.205,9.481
		c14.567-0.497,25.968-12.653,25.47-27.153c-0.094-2.776-0.624-5.437-1.513-7.922c7.704-1.934,13.912-7.467,16.796-14.645
		c4.475,3.93,10.389,6.248,16.822,6.029c1.442-0.049,2.847-0.232,4.21-0.521v-32.883H306.273z"/>
	<ellipse style="fill:#92DEEE;" cx="391.472" cy="161.079" rx="17.492" ry="17.412"/>
	<ellipse style="fill:#92DEEE;" cx="89.262" cy="224.422" rx="17.492" ry="17.412"/>
	<ellipse style="fill:#92DEEE;" cx="464.639" cy="106.219" rx="17.492" ry="17.413"/>
	<ellipse style="fill:#92DEEE;" cx="329.4" cy="239.607" rx="18.383" ry="18.299"/>
	<path style="fill:#92DEEE;" d="M457.407,217.424c-3.076-0.348-6.061,0.098-8.746,1.167c-0.903-8.186-7.376-14.957-15.944-15.924
		c-7.118-0.803-13.724,2.633-17.316,8.276c-2.522-1.924-5.568-3.229-8.955-3.611c-9.934-1.119-18.898,5.986-20.023,15.874
		c-1.125,9.887,6.016,18.811,15.947,19.931c7.119,0.803,13.725-2.633,17.318-8.276c2.521,1.925,5.569,3.23,8.954,3.611
		c3.077,0.348,6.061-0.099,8.747-1.168c0.901,8.185,7.376,14.957,15.942,15.925c9.934,1.119,18.9-5.987,20.023-15.874
		C474.479,227.467,467.339,218.543,457.407,217.424z"/>
	<ellipse style="fill:#92DEEE;" cx="67.034" cy="303.25" rx="19.279" ry="19.187"/>
</g>
<path style="fill:#90A7BB;" d="M467.47,512H22.518c-4.206,0-7.614-3.407-7.614-7.61c0-4.205,3.408-7.612,7.614-7.612H467.47
	c4.206,0,7.614,3.407,7.614,7.612C475.085,508.592,471.675,512,467.47,512z"/>
<path style="fill:#FFD5B3;" d="M137.784,295c2.685-2.672,22.664-22.561,25.348-25.233c4.109-4.09,10.775-4.086,14.885,0.008
	l6.068,6.039c4.113,4.094,4.115,10.727,0.008,14.818c-2.685,2.671-6.457,3.584-9.898,2.764c0.822,3.425-0.093,7.181-2.777,9.853
	c-2.686,2.672-6.455,3.584-9.897,2.764c0.824,3.426-0.094,7.181-2.778,9.854c-4.106,4.088-10.772,4.085-14.884-0.008l-6.066-6.039
	C133.68,305.724,133.677,299.09,137.784,295z"/>
<path style="fill:#D48748;" d="M420.035,231.006h-59.874c-29.762,0-53.888,24.017-53.888,53.641v16.689
	c0,3.519,0.351,6.954,1,10.285v-24.59c0-11.28,9.22-20.456,20.554-20.456c11.332,0,20.552,9.176,20.552,20.456v60.795
	c0,1.967-0.296,3.862-0.818,5.664c4.043,0.964,8.259,1.49,12.6,1.49h59.875c2.983,0,5.906-0.252,8.758-0.716
	c-7.7-4.354-12.91-12.587-12.91-22.013v-8.186c0-13.953,11.404-25.304,25.423-25.304h3.658c0.262-2.396,2.274-4.273,4.739-4.273
	h18.43c2.503,0,4.54,1.937,4.749,4.386c0.348,0.031,0.697,0.058,1.041,0.102v-14.327
	C473.923,255.023,449.797,231.006,420.035,231.006z"/>
<g style="opacity:0.1;">
	<path d="M384.273,231.006h-24.112c-29.762,0-53.888,24.017-53.888,53.641v2.384c0-11.85,9.651-21.457,21.555-21.457
		c2.002,0,3.933,0.287,5.77,0.796C341.108,245.744,360.959,231.006,384.273,231.006z"/>
</g>
<path style="fill:#FFD5B3;" d="M472.68,297.843c0.143,0.455,0.243,0.93,0.243,1.434v12.34c0,2.641-2.148,4.789-4.79,4.789h-18.43
	c-2.642,0-4.791-2.148-4.791-4.789v-12.34c0-0.533,0.108-1.037,0.27-1.517h-3.876c-14.594,0-26.424,11.778-26.424,26.305v8.186
	c0,14.527,11.829,26.304,26.424,26.304h29.365c14.593,0,26.425-11.776,26.425-26.304v-8.186
	C497.096,310.212,486.334,298.867,472.68,297.843z"/>
<path style="opacity:0.1;fill:#15004D;enable-background:new    ;" d="M431.831,332.25v-8.186c0-9.681,5.258-18.136,13.082-22.702
	v-2.086c0-0.533,0.108-1.037,0.27-1.517h-3.876c-14.594,0-26.424,11.778-26.424,26.305v8.186c0,14.527,11.829,26.304,26.424,26.304
	h16.948C443.661,358.553,431.831,346.777,431.831,332.25z"/>
<g>
	<path style="fill:#A75436;" d="M473.923,311.616c0,3.186-2.606,5.789-5.79,5.789h-18.43c-3.187,0-5.791-2.604-5.791-5.789v-12.34
		c0-3.185,2.604-5.79,5.791-5.79h18.43c3.184,0,5.79,2.605,5.79,5.79V311.616z"/>
	<path style="fill:#A75436;" d="M391.236,282.743c-4.145,0-7.503-3.359-7.503-7.503v-9.537c0-4.143,3.358-7.503,7.503-7.503
		c4.145,0,7.503,3.359,7.503,7.503v9.537C398.739,279.384,395.381,282.743,391.236,282.743z"/>
	<path style="fill:#A75436;" d="M441.458,282.743c-4.145,0-7.503-3.359-7.503-7.503v-9.537c0-4.143,3.358-7.503,7.503-7.503
		c4.145,0,7.503,3.359,7.503,7.503v9.537C448.961,279.384,445.603,282.743,441.458,282.743z"/>
	<path style="fill:#A75436;" d="M349.38,347.826c0,11.851-9.647,21.457-21.553,21.457l0,0c-11.904,0-21.555-9.607-21.555-21.457
		v-60.795c0-11.85,9.651-21.457,21.555-21.457l0,0c11.905,0,21.553,9.606,21.553,21.457V347.826z"/>
</g>
<path style="opacity:0.1;fill:#15004D;enable-background:new    ;" d="M327.343,347.826v-60.795c0-8.038,4.448-15.033,11.02-18.709
	c-3.116-1.744-6.704-2.748-10.535-2.748c-11.904,0-21.555,9.606-21.555,21.457v60.795c0,11.851,9.651,21.457,21.555,21.457
	c3.83,0,7.419-1.005,10.535-2.748C331.791,362.86,327.343,355.865,327.343,347.826z"/>
<path style="fill:#FFD5B3;" d="M353.061,211.888c3.797,0,32.052-0.001,35.85,0c5.811,0,10.522,4.694,10.52,10.483l0.002,8.542
	c-0.002,5.789-4.711,10.482-10.522,10.483c-3.796,0-7.112-2.01-8.962-5.012c-1.851,3.001-5.166,5.011-8.962,5.012
	c-3.796,0-7.112-2.01-8.962-5.013c-1.851,3.003-5.165,5.013-8.963,5.013c-5.81-0.001-10.52-4.694-10.52-10.483v-8.542
	C342.542,216.582,347.252,211.888,353.061,211.888z"/>
<g>
	<path style="fill:#D48748;" d="M186.574,386.258c-4.143,0-7.503,3.359-7.503,7.503v3.225c0,4.144,3.359,7.503,7.503,7.503
		c4.144,0,7.503-3.359,7.503-7.503v-3.225C194.077,389.618,190.717,386.258,186.574,386.258z"/>
	<path style="fill:#D48748;" d="M231.691,380.883c-4.144,0-7.503,3.359-7.503,7.503v3.224c0,4.144,3.359,7.503,7.503,7.503
		c4.143,0,7.503-3.359,7.503-7.503v-3.224C239.194,384.243,235.835,380.883,231.691,380.883z"/>
	<path style="fill:#D48748;" d="M279.12,384.107c-4.145,0-7.503,3.359-7.503,7.503v3.226c0,4.143,3.358,7.503,7.503,7.503
		s7.503-3.359,7.503-7.503v-3.226C286.623,387.466,283.265,384.107,279.12,384.107z"/>
	<path style="fill:#D48748;" d="M338.119,385.183c-4.145,0-7.503,3.359-7.503,7.503v3.225c0,4.143,3.358,7.503,7.503,7.503
		c4.144,0,7.503-3.359,7.503-7.503v-3.225C345.622,388.542,342.262,385.183,338.119,385.183z"/>
</g>
<path style="fill:#0481BF;" d="M219.976,88.235c-1.399,0-2.747-0.504-3.802-1.419l-20.345-17.658l-12.15,16.696
	c-1.088,1.495-2.83,2.381-4.685,2.381h-38.116c-3.193,0-5.784-2.578-5.784-5.758v-3.184C135.094,35.572,170.827,0,214.749,0
	s79.654,35.572,79.654,79.293v3.184c0,3.18-2.59,5.758-5.782,5.758C288.621,88.235,219.976,88.235,219.976,88.235z"/>
<g style="opacity:0.1;">
	<path d="M156.328,82.477v-3.184c0-40.139,30.119-73.383,69.037-78.568C221.89,0.263,218.351,0,214.749,0
		c-43.923,0-79.655,35.572-79.655,79.293v3.184c0,3.18,2.591,5.758,5.784,5.758h21.234
		C158.917,88.235,156.328,85.657,156.328,82.477z"/>
</g>
<g>
</g>
<g>
</g>
<g>
</g>
<g>
</g>
<g>
</g>
<g>
</g>
<g>
</g>
<g>
</g>
<g>
</g>
<g>
</g>
<g>
</g>
<g>
</g>
<g>
</g>
<g>
</g>
<g>
</g>
</svg>
