<svg height="512pt" viewBox="0 -22 512.00604 512" width="512pt" xmlns="http://www.w3.org/2000/svg"><path d="m373.160156 111.941406c-11.554687 44.4375-26.019531 88.066406-43.304687 130.601563-.046875.082031-.074219.171875-.085938.261719l-17.355469 26.035156-156.203124-95.457032 39.570312-20.222656 3.816406-1.996094c31.929688-18.886718 60.929688-42.332031 86.085938-69.59375 4.949218-5.207031 9.71875-10.414062 14.234375-15.621093 16.621093-18.535157 30.929687-39.019531 42.605469-61.007813 1.433593-3 4.457031-4.9179685 7.785156-4.93749975s6.371094 1.86718775 7.835937 4.85156275c9.894531 19.699219 22.128907 74.542969 15.015625 107.085937zm0 0" fill="#2fa8cc"/><path d="m254.53125 194.816406c-.695312.703125-1.519531 1.261719-2.429688 1.648438-3.339843 1.53125-7.285156.765625-9.808593-1.910156-1.902344-1.945313-2.742188-4.695313-2.253907-7.375.191407-1.863282 1.054688-3.589844 2.429688-4.859376.605469-.519531 50.246094-49.292968 43.214844-100.75 4.949218-5.207031 9.71875-10.414062 14.234375-15.621093.164062.296875.28125.617187.34375.953125 18.574219 65-43.039063 125.398437-45.730469 127.914062zm0 0" fill="#3f5c6c"/><path d="m494.648438 277.515625-157.15625.261719c-15.238282.058594-30.195313 4.097656-43.390626 11.714844-26.292968 15.445312-77.40625 40.613281-129.648437 40.613281-74.023437 0-139.976563-44.085938-163.492187-91.988281-1.46875-2.855469-1.238282-6.289063.597656-8.925782 1.835937-2.636718 4.976562-4.042968 8.167968-3.65625 28.359376 4.265625 56.917969 7.074219 85.5625 8.417969-22.996093-19.179687-60.65625-62.308594-60.65625-115.589844.148438-21.933593 6.269532-43.414062 17.703126-62.132812 3.089843-5.21875 6.507812-10.234375 10.238281-15.015625 12.578125-16.503906 28.445312-30.214844 46.601562-40.265625 2.472657-1.214844 5.382813-1.175781 7.820313.113281s4.113281 3.667969 4.5 6.394531c8.246094 54.066407 15.015625 99.277344 74.285156 145.703125 1.214844.957032 2.515625 1.996094 3.816406 2.953125l40.441406 31.066407 12.0625 9.285156 42.609376 32.714844c10.148437 7.808593 22.371093 12.457031 35.144531 13.363281 1.644531.175781 3.292969.261719 4.945312.261719h.609375c16.398438-.074219 32.613282-3.5 47.640625-10.066407 10.441407-4.679687 21.710938-7.21875 33.152344-7.460937 29.417969 0 29.070313 16.574218 43.5625 26.292968 4.597656 3.125 33.667969 6.59375 39.308594 9.890626 3.277343 2.03125 4.820312 5.972656 3.796875 9.683593-1.023438 3.714844-4.371094 6.308594-8.222656 6.371094zm0 0" fill="#67b9cc"/><g fill="#e64c3c"><path d="m442.582031 451.078125c-28.757812 0-52.066406-23.3125-52.066406-52.070313 0-28.753906 23.308594-52.066406 52.066406-52.066406 28.757813 0 52.066407 23.3125 52.066407 52.066406-.027344 28.746094-23.320313 52.039063-52.066407 52.070313zm0-86.78125c-19.171875 0-34.710937 15.539063-34.710937 34.710937 0 19.171876 15.539062 34.710938 34.710937 34.710938s34.710938-15.539062 34.710938-34.710938c0-19.171874-15.539063-34.710937-34.710938-34.710937zm0 0"/><path d="m503.328125 407.6875h-26.035156c-4.792969 0-8.675781-3.886719-8.675781-8.679688 0-4.792968 3.882812-8.675781 8.675781-8.675781h26.035156c4.792969 0 8.679687 3.882813 8.679687 8.675781 0 4.792969-3.886718 8.679688-8.679687 8.679688zm0 0"/><path d="m407.871094 407.6875h-26.035156c-4.792969 0-8.675782-3.886719-8.675782-8.679688 0-4.792968 3.882813-8.675781 8.675782-8.675781h26.035156c4.792968 0 8.675781 3.882813 8.675781 8.675781 0 4.792969-3.882813 8.679688-8.675781 8.679688zm0 0"/><path d="m442.582031 468.433594c-4.792969 0-8.675781-3.886719-8.675781-8.679688v-26.035156c0-4.792969 3.882812-8.675781 8.675781-8.675781s8.679688 3.882812 8.679688 8.675781v26.035156c0 4.792969-3.886719 8.679688-8.679688 8.679688zm0 0"/><path d="m442.582031 372.972656c-4.792969 0-8.675781-3.882812-8.675781-8.675781v-26.035156c0-4.792969 3.882812-8.675781 8.675781-8.675781s8.679688 3.882812 8.679688 8.675781v26.035156c0 4.792969-3.886719 8.675781-8.679688 8.675781zm0 0"/><path d="m451.261719 399.007812c0 4.792969-3.886719 8.679688-8.679688 8.679688s-8.675781-3.886719-8.675781-8.679688c0-4.792968 3.882812-8.675781 8.675781-8.675781s8.679688 3.882813 8.679688 8.675781zm0 0"/></g><path d="m147.53125 268.839844c-.808594 0-1.609375-.113282-2.386719-.339844-20.054687-5.292969-38.820312-14.628906-55.140625-27.429688-3.601562-3.046874-4.113281-8.414062-1.144531-12.082031 2.964844-3.671875 8.320313-4.296875 12.054687-1.414062 14.523438 11.316406 31.195313 19.554687 49.003907 24.222656 4.203125 1.15625 6.890625 5.25 6.289062 9.566406-.605469 4.316407-4.316406 7.515625-8.675781 7.476563zm0 0" fill="#41767f"/><path d="m164.105469 211.738281c-1.4375 3.0625-4.511719 5.019531-7.894531 5.03125-1.257813-.007812-2.496094-.273437-3.644532-.78125-77.410156-35.75-85.394531-87.730469-91.207031-125.65625-.886719-11.824219-3.945313-23.386719-9.023437-34.101562 3.089843-5.21875 6.507812-10.234375 10.238281-15.015625 10.5 11.371094 13.015625 27.769531 15.878906 46.429687 5.554687 36.011719 12.410156 80.703125 81.402344 112.550781 4.347656 2.027344 6.246093 7.179688 4.25 11.542969zm0 0" fill="#41767f"/></svg>