<svg id="Capa_1" enable-background="new 0 0 512 512" height="512" viewBox="0 0 512 512" width="512" xmlns="http://www.w3.org/2000/svg"><g><g><g><g><g><g><g><g><path d="m391.49 217.169v-101.271c0-64.009-51.889-115.898-115.898-115.898-64.009 0-115.898 51.889-115.898 115.898v101.271c0 44.467 36.048 80.515 80.515 80.515h70.767c44.466 0 80.514-36.048 80.514-80.515z" fill="#a34f41"/><path d="m391.489 115.895v101.277c0 44.463-36.046 80.509-80.519 80.509h-26.97c44.463 0 80.519-36.046 80.519-80.509v-101.277c0-59.441-44.751-108.427-102.41-115.112 4.419-.515 8.921-.783 13.485-.783 64.005 0 115.895 51.89 115.895 115.895z" fill="#873f30"/></g><g><g><g><path d="m405.468 512h-259.754c-5.69 0-10.302-4.612-10.302-10.302v-139.534c0-49.773 40.349-90.122 90.123-90.122h100.113c49.773 0 90.122 40.349 90.122 90.122v139.534c0 5.69-4.612 10.302-10.302 10.302z" fill="#23f1a8"/></g><path d="m188.51 402.996h174.162v109.004h-174.162z" fill="#fcb44d"/><path d="m188.51 402.996h174.162v94.88c-13.743-5.8-23.385-19.398-23.385-35.253 0-3.853-12.816 20.913-63.696 20.913-54.661 0-63.696-24.766-63.696-20.913 0 15.854-9.642 29.453-23.385 35.253z" fill="#fb9927"/><path d="m324.476 402.999h38.196v109.001h-38.196z" fill="#fb9927"/><g><path d="m415.771 362.169v139.525c0 5.69-4.612 10.302-10.302 10.302h-29.413v-149.827c0-49.772-40.353-90.125-90.125-90.125h39.715c49.775 0 90.125 40.35 90.125 90.125z" fill="#26d192"/></g><g><g><path d="m275.31 329.629c-15.611 0-28.266-12.655-28.266-28.266v-48.028h56.532v48.028c0 15.611-12.655 28.266-28.266 28.266z" fill="#fdb0a0"/></g><g><g fill="#fdb0a0"><circle cx="183.844" cy="169.243" r="27.335"/><circle cx="366.775" cy="169.243" r="27.335"/></g><path d="m310.942 120.789-9.098-13.449c-2.031-3.002-6.444-3.024-8.504-.042l-9.38 13.575c-1.924 2.784-5.092 4.446-8.476 4.446h-79.261c-2.844 0-5.15 2.305-5.151 5.15l-.016 66.6c0 46.745 38.065 84.597 84.89 84.251 46.457-.343 83.617-38.851 83.617-85.309v-65.541c0-2.845-2.306-5.151-5.151-5.151h-34.939c-3.418 0-6.615-1.697-8.531-4.53z" fill="#ffcec0"/><g><g><g><path d="m237.066 180.222c-4.268 0-7.726-3.459-7.726-7.726v-4.795c0-4.268 3.459-7.726 7.726-7.726 4.268 0 7.726 3.459 7.726 7.726v4.795c.001 4.268-3.458 7.726-7.726 7.726z" fill="#a34f41"/></g><g><path d="m313.552 180.222c-4.268 0-7.726-3.459-7.726-7.726v-4.795c0-4.268 3.459-7.726 7.726-7.726s7.726 3.459 7.726 7.726v4.795c.001 4.268-3.458 7.726-7.726 7.726z" fill="#a34f41"/></g></g><g><path d="m275.31 232.194c-11.943 0-23.448-5.035-31.565-13.815-2.896-3.133-2.705-8.021.428-10.919 3.133-2.897 8.021-2.705 10.919.428 5.279 5.709 12.46 8.853 20.219 8.853 7.761 0 14.941-3.144 20.218-8.852 2.895-3.135 7.785-3.326 10.918-.429 3.134 2.896 3.326 7.785.429 10.917-8.118 8.782-19.623 13.817-31.566 13.817z" fill="#fdb0a0"/></g></g></g></g></g></g></g><g fill="#fc9aa1"><ellipse cx="318.539" cy="195.979" rx="15.972" ry="10.715"/><ellipse cx="232.645" cy="195.979" rx="15.972" ry="10.715"/></g></g><g><path d="m359.562 98.114v32.358c0-2.843-2.308-5.151-5.151-5.151h-10.301v-27.207c0-4.265 3.462-7.726 7.726-7.726 4.265 0 7.726 3.461 7.726 7.726z" fill="#7c372c"/></g></g></g></g><g><g><circle cx="173.652" cy="436.34" fill="#ffcec0" r="38.239"/><path d="m211.896 436.344c0 21.119-17.121 38.23-38.24 38.23-5.048 0-9.859-.979-14.268-2.751 14.042-5.656 23.952-19.409 23.952-35.479 0-16.071-9.91-29.824-23.952-35.48 4.409-1.782 9.22-2.761 14.268-2.761 21.118 0 38.24 17.122 38.24 38.241z" fill="#fdb0a0"/></g><g><circle cx="377.531" cy="436.34" fill="#ffcec0" r="38.239"/><path d="m415.769 436.344c0 21.119-17.122 38.23-38.24 38.23-5.048 0-9.859-.979-14.268-2.751 14.052-5.656 23.962-19.409 23.962-35.479 0-16.071-9.91-29.824-23.962-35.48 4.409-1.782 9.22-2.761 14.268-2.761 21.118 0 38.24 17.122 38.24 38.241z" fill="#fdb0a0"/></g></g><g><g><path d="m169.031 326.317-3.399 52.069c-1.461 22.377 16.296 41.33 38.72 41.33h142.479c22.424 0 40.18-18.951 38.721-41.327l-3.395-52.066c-2.645-40.563-36.316-72.111-76.965-72.111h-59.197c-40.646.001-74.317 31.545-76.964 72.105z" fill="#fcc16d"/><path d="m346.829 419.716h-28.546c22.427 0 40.177-18.955 38.725-41.331l-3.4-52.065c-2.648-40.558-36.314-72.102-76.965-72.102h28.546c40.651 0 74.328 31.544 76.965 72.102l3.4 52.065c1.452 22.376-16.298 41.331-38.725 41.331z" fill="#fcb44d"/></g><g fill="#f9a428"><path d="m217.542 303.636c-.361.896-9.004 22.345-13.454 48.903-3.307 19.728-4.862 46.09 4.09 67.178h-3.822c-4.78 0-9.344-.855-13.547-2.431-5.717-18.409-6.377-40.939-1.957-67.302 4.646-27.743 13.392-49.747 14.371-52.168 1.607-3.946 6.109-5.851 10.065-4.244 3.955 1.596 5.861 6.108 4.254 10.064z"/><path d="m360.376 417.285c-4.203 1.576-8.767 2.431-13.547 2.431h-3.822c8.952-21.077 7.397-47.45 4.079-67.178-4.45-26.558-13.084-48.006-13.444-48.903-1.607-3.956.299-8.468 4.255-10.065 3.956-1.607 8.458.299 10.065 4.244.979 2.421 9.725 24.426 14.371 52.168 4.41 26.364 3.751 48.894-1.957 67.303z"/></g><g fill="#fcc16d"><path d="m334.119 303.438h-117.055s-62.439 153.822 58.527 153.822 58.528-153.822 58.528-153.822z"/><path d="m137.877 368.661c.134.402.268.814.422 1.226-.576-.948-.69-1.329-.422-1.226z"/><path d="m419.055 362.253c.134-.371.258-.732.381-1.092.247-.113.144.227-.381 1.092z"/></g><g><path d="m294.259 397.848c0 10.31-8.358 23.819-18.668 23.819s-18.668-13.509-18.668-23.819 8.358-13.517 18.668-13.517 18.668 3.207 18.668 13.517z" fill="#873f30"/></g><g><g><path d="m237.349 364.784c-4.268 0-7.726-3.459-7.726-7.726v-4.795c0-4.268 3.459-7.726 7.726-7.726 4.268 0 7.726 3.459 7.726 7.726v4.795c.001 4.267-3.458 7.726-7.726 7.726z" fill="#fb9927"/></g><g><path d="m313.835 364.784c-4.268 0-7.726-3.459-7.726-7.726v-4.795c0-4.268 3.459-7.726 7.726-7.726s7.726 3.459 7.726 7.726v4.795c0 4.267-3.458 7.726-7.726 7.726z" fill="#fb9927"/></g></g></g></g><g><path d="m158.684 54.877-.856 1.716c-1.27 2.546-4.363 3.58-6.908 2.31l-1.716-.856c-19.394-9.674-42.959-1.794-52.633 17.601-9.674 19.395-1.794 42.959 17.601 52.633l67.681 33.758c4.903 2.446 10.861.453 13.306-4.45l33.759-67.681c9.674-19.395 1.794-42.959-17.601-52.633-19.395-9.673-42.959-1.793-52.633 17.602z" fill="#fb8189"/><path d="m228.92 89.906-33.761 67.686c-2.452 4.9-8.408 6.891-13.304 4.449l-21.809-10.878c3.993 1.992 8.838.371 10.82-3.618l29.684-59.512c7.875-15.772 1.462-34.948-14.316-42.81-5.553-2.777-11.536-3.779-17.29-3.215 3.708-3.019 7.926-5.329 12.414-6.829 9.522-3.184 20.258-2.737 29.96 2.095 19.39 9.677 27.268 33.237 17.602 52.632z" fill="#fb6672"/></g></g></svg>