<svg id="dogs" enable-background="new 0 0 300 300" height="512" viewBox="0 0 300 300" width="512" xmlns="http://www.w3.org/2000/svg"><g><g fill="#4c241d"><path d="m239.657 73.474c-1.023 0-2.047-.391-2.828-1.172l-11.312-11.312c-1.562-1.562-1.562-4.094 0-5.656s4.094-1.562 5.656 0l11.312 11.312c1.562 1.562 1.562 4.094 0 5.656-.781.781-1.805 1.172-2.828 1.172z"/><path d="m228.344 73.474c-1.023 0-2.047-.391-2.828-1.172-1.562-1.562-1.562-4.094 0-5.656l11.312-11.312c1.562-1.562 4.094-1.562 5.656 0s1.562 4.094 0 5.656l-11.312 11.312c-.781.781-1.804 1.172-2.828 1.172z"/><circle cx="94.001" cy="51.817" r="4"/></g><circle cx="150.001" cy="127.817" fill="#edebdc" r="88"/><g><path d="m94.001 256.183v-116.025c0-10.95 3.374-21.107 9.123-29.51l93.902.198c5.664 8.364 8.975 18.45 8.975 29.312v116.025" fill="#b5a19c"/><path d="m206.001 260.183c-2.209 0-4-1.791-4-4v-116.026c0-9.004-2.467-17.711-7.154-25.314l-89.562-.191c-4.771 7.658-7.283 16.432-7.283 25.506v116.025c0 2.209-1.791 4-4 4s-4-1.791-4-4v-116.026c0-11.391 3.396-22.377 9.822-31.768.746-1.09 1.98-1.742 3.301-1.742h.008l93.902.199c1.324.002 2.562.66 3.305 1.758 6.32 9.334 9.662 20.244 9.662 31.553v116.025c-.001 2.21-1.792 4.001-4.001 4.001z" fill="#4c241d"/></g><g><path d="m150.001 203.817c-6.628 0-12-5.372-12-12v-16h24v16c0 6.628-5.373 12-12 12z" fill="#e66353"/><path d="m150.001 207.817c-8.822 0-16-7.178-16-16v-16c0-2.209 1.791-4 4-4h24c2.209 0 4 1.791 4 4v16c0 8.823-7.178 16-16 16zm-8-28v12c0 4.412 3.588 8 8 8s8-3.588 8-8v-12z" fill="#4c241d"/></g><g><path d="m120.579 163.622 2.536 7.574c1.663 4.966 6.689 7.988 11.855 7.126l13.406-2.235c1.166-.194 2.358-.194 3.524.003l12.384 2.089c5.485.925 10.758-2.525 12.107-7.921l1.61-6.44" fill="#b5a19c"/><path d="m133.173 182.472c-6.213 0-11.814-3.928-13.852-10.004l-2.535-7.576c-.701-2.096.428-4.361 2.523-5.062s4.359.43 5.062 2.523l2.535 7.574c1.047 3.119 4.164 5 7.404 4.449l13.406-2.234c1.604-.271 3.234-.266 4.842.002l12.391 2.092c3.41.564 6.725-1.6 7.561-4.949l1.609-6.439c.539-2.143 2.711-3.449 4.852-2.91 2.143.535 3.445 2.707 2.91 4.852l-1.609 6.439c-1.846 7.371-9.166 12.162-16.654 10.895l-12.385-2.09c-.725-.117-1.465-.121-2.197 0l-13.408 2.234c-.825.135-1.647.204-2.455.204z" fill="#4c241d"/></g><path d="m150.001 195.817c-2.209 0-4-1.791-4-4v-24c0-2.209 1.791-4 4-4s4 1.791 4 4v24c0 2.209-1.791 4-4 4z" fill="#4c241d"/><g><path d="m152.424 163.817h-4.847c-.941 0-1.777-.201-2.075-.498l-2.542-2.542c-.472-.472.582-.96 2.075-.96h9.93c1.493 0 2.547.488 2.075.96l-2.542 2.542c-.296.298-1.132.498-2.074.498z" fill="#ffce56"/><path d="m152.425 167.817h-4.848c-1.475 0-3.523-.289-4.902-1.67l-2.543-2.543c-1.145-1.145-1.58-3.193-.961-4.688.816-1.971 2.953-3.1 5.865-3.1h9.93c2.912 0 5.049 1.129 5.865 3.1.619 1.494.184 3.543-.961 4.688l-2.543 2.543c-1.379 1.381-3.428 1.67-4.902 1.67z" fill="#4c241d"/></g><circle cx="134.001" cy="135.817" fill="#4c241d" r="4"/><circle cx="166.001" cy="135.817" fill="#4c241d" r="4"/><g><path d="m197.026 110.846c1.806-3.758 6.941-15.723 3.146-23.313-4.226-8.452-14.368-27.771-14.368-27.771s-2.591 7.744-8.693 13.282c-4.93 4.474-6.752 13.286-7.348 17.324-5.076-1.641-10.48-2.55-16.102-2.55h-7.319c-5.535 0-10.863.873-15.87 2.465-.611-4.078-2.444-12.8-7.336-17.239-6.102-5.537-8.694-13.282-8.694-13.282s-10.142 19.318-14.368 27.771c-3.725 7.45 1.16 19.132 3.05 23.115-5.749 8.403-9.123 18.56-9.123 29.51v31.66c0-24 24-28 24-28v-8c0-8.837 7.163-16 16-16s16 7.163 16 16c0-8.837 7.163-16 16-16s16 7.163 16 16v8s24 4 24 28v-31.66c0-10.862-3.311-20.949-8.975-29.312z" fill="#6b4f5b"/><path d="m206.001 175.817c-2.209 0-4-1.791-4-4 0-20.377-19.814-23.914-20.658-24.055-1.928-.32-3.342-1.99-3.342-3.945v-8c0-6.617-5.383-12-12-12s-12 5.383-12 12c0 2.209-1.791 4-4 4s-4-1.791-4-4c0-6.617-5.383-12-12-12s-12 5.383-12 12v8c0 1.955-1.414 3.625-3.342 3.945-.832.145-20.658 3.82-20.658 24.055 0 2.209-1.791 4-4 4s-4-1.791-4-4v-31.66c0-10.631 2.959-20.908 8.576-29.867-2.52-5.889-6.012-16.682-2.082-24.547 4.195-8.389 14.305-27.646 14.406-27.84.744-1.42 2.268-2.266 3.861-2.127 1.598.127 2.965 1.197 3.473 2.717.02.059 2.377 6.859 7.588 11.588 4.303 3.904 6.574 10.168 7.758 15.201 4.184-.973 8.457-1.465 12.76-1.465h7.32c4.371 0 8.723.514 12.986 1.527 1.182-5.055 3.453-11.342 7.775-15.264 5.211-4.729 7.568-11.529 7.592-11.598.514-1.514 1.883-2.58 3.477-2.703 1.588-.135 3.111.707 3.854 2.123.102.193 10.211 19.451 14.406 27.84 3.973 7.947.393 18.84-2.176 24.768 5.52 8.898 8.426 19.1 8.426 29.646v31.66c0 2.21-1.791 4.001-4 4.001zm-20-35.173c5.006 1.457 11.172 4.527 16 9.764v-10.25c0-9.703-2.865-19.062-8.287-27.068-.797-1.178-.91-2.691-.293-3.975 3.096-6.445 5.555-15.031 3.174-19.793-2.561-5.119-7.357-14.354-10.693-20.744-1.514 2.428-3.527 5.092-6.104 7.43-2.801 2.541-5.072 8.127-6.078 14.945-.172 1.164-.848 2.193-1.846 2.814-1.002.617-2.223.766-3.342.408-4.838-1.564-9.842-2.357-14.871-2.357h-7.32c-4.973 0-9.904.766-14.658 2.277-1.115.355-2.33.201-3.326-.418-.994-.619-1.666-1.643-1.84-2.801-1.018-6.787-3.287-12.346-6.068-14.869-2.576-2.338-4.59-5.002-6.104-7.43-3.336 6.391-8.133 15.625-10.693 20.744-2.354 4.707.051 13.217 3.086 19.611.611 1.285.492 2.799-.312 3.973-5.512 8.057-8.424 17.479-8.424 27.252v10.25c4.828-5.236 10.994-8.307 16-9.764v-4.826c0-11.027 8.973-20 20-20 6.535 0 12.348 3.15 16 8.012 3.652-4.861 9.465-8.012 16-8.012 11.027 0 20 8.973 20 20v4.827z" fill="#4c241d"/></g><g><path d="m114.001 99.817s-4-8 0-12" fill="#b5a19c"/><path d="m114.005 103.817c-1.469 0-2.881-.809-3.582-2.211-.541-1.082-5.119-10.748.75-16.617 1.562-1.562 4.094-1.562 5.656 0s1.562 4.094 0 5.656c-1.305 1.307-.223 5.438.75 7.383.988 1.977.188 4.379-1.789 5.367-.574.288-1.186.422-1.785.422z" fill="#4c241d"/></g><g><path d="m186.499 99.817s4-8 0-12" fill="#b5a19c"/><path d="m186.495 103.817c-.6 0-1.211-.135-1.785-.422-1.973-.986-2.773-3.383-1.795-5.355.908-1.85 2.102-6.049.756-7.395-1.562-1.562-1.562-4.094 0-5.656s4.094-1.562 5.656 0c5.869 5.869 1.291 15.535.75 16.617-.701 1.403-2.113 2.211-3.582 2.211z" fill="#4c241d"/></g><g><path d="m114.001 203.817s0 8-8 12" fill="#b5a19c"/><path d="m106.005 219.817c-1.469 0-2.881-.809-3.582-2.211-.988-1.977-.188-4.379 1.789-5.367 5.59-2.795 5.783-8.236 5.789-8.467.053-2.191 1.711-4.018 4.047-3.93 2.191.025 3.953 1.783 3.953 3.975 0 .428-.115 10.529-10.211 15.578-.574.288-1.186.422-1.785.422z" fill="#4c241d"/></g><g><path d="m250.001 195.817s0 8-8 12" fill="#b5a19c"/><path d="m242.005 211.817c-1.469 0-2.881-.809-3.582-2.211-.988-1.977-.188-4.379 1.789-5.367 5.59-2.795 5.783-8.236 5.789-8.467.051-2.189 1.762-3.941 4.047-3.93 2.191.025 3.953 1.783 3.953 3.975 0 .428-.115 10.529-10.211 15.578-.574.288-1.186.422-1.785.422z" fill="#4c241d"/></g><g><path d="m62.001 195.817s0 8-8 12" fill="#b5a19c"/><path d="m54.005 211.817c-1.469 0-2.881-.809-3.582-2.211-.988-1.977-.188-4.379 1.789-5.367 5.59-2.795 5.783-8.236 5.789-8.467.053-2.189 1.805-3.941 4.047-3.93 2.191.025 3.953 1.783 3.953 3.975 0 .428-.115 10.529-10.211 15.578-.574.288-1.186.422-1.785.422z" fill="#4c241d"/></g><g><path d="m78.001 227.817s0 8-8 12" fill="#b5a19c"/><path d="m70.005 243.817c-1.469 0-2.881-.809-3.582-2.211-.988-1.977-.188-4.379 1.789-5.367 5.59-2.795 5.783-8.236 5.789-8.467.053-2.191 1.922-3.977 4.047-3.93 2.191.025 3.953 1.783 3.953 3.975 0 .428-.115 10.529-10.211 15.578-.574.288-1.186.422-1.785.422z" fill="#4c241d"/></g><g><path d="m58.001 231.817s0 8-8 12" fill="#b5a19c"/><path d="m50.005 247.817c-1.469 0-2.881-.809-3.582-2.211-.988-1.977-.188-4.379 1.789-5.367 5.59-2.795 5.783-8.236 5.789-8.467.053-2.189 1.707-3.879 4.047-3.93 2.191.025 3.953 1.783 3.953 3.975 0 .428-.115 10.529-10.211 15.578-.574.288-1.186.422-1.785.422z" fill="#4c241d"/></g><g><path d="m234.001 127.817s0 8-8 12" fill="#b5a19c"/><path d="m226.005 143.817c-1.469 0-2.881-.809-3.582-2.211-.988-1.977-.188-4.379 1.789-5.367 5.59-2.795 5.783-8.236 5.789-8.467.053-2.191 1.916-3.967 4.047-3.93 2.191.025 3.953 1.783 3.953 3.975 0 .428-.115 10.529-10.211 15.578-.574.288-1.186.422-1.785.422z" fill="#4c241d"/></g><g><path d="m125.488 210.861c-1.375 4.519-4.552 9.489-11.487 12.956" fill="#b5a19c"/><path d="m114.005 227.817c-1.469 0-2.881-.809-3.582-2.211-.988-1.977-.188-4.379 1.789-5.367 4.885-2.441 8.062-5.988 9.449-10.541.645-2.117 2.889-3.311 4.99-2.662 2.113.643 3.307 2.877 2.662 4.99-2.021 6.641-6.697 11.955-13.523 15.369-.574.288-1.186.422-1.785.422z" fill="#4c241d"/></g><g><path d="m186.001 207.817s1.284 5.136-.513 11.044" fill="#b5a19c"/><path d="m185.489 222.864c-.387 0-.777-.057-1.166-.176-2.113-.643-3.305-2.877-2.662-4.99 1.428-4.697.463-8.893.453-8.936-.506-2.139.807-4.299 2.943-4.82 2.137-.514 4.293.77 4.824 2.906.062.252 1.527 6.289-.568 13.178-.523 1.725-2.109 2.838-3.824 2.838z" fill="#4c241d"/></g><g><path d="m66.001 211.817s1.284 5.136-.513 11.044" fill="#b5a19c"/><path d="m65.489 226.864c-.387 0-.777-.057-1.166-.176-2.113-.643-3.305-2.877-2.662-4.99 1.428-4.697.463-8.893.453-8.936-.506-2.139.807-4.299 2.943-4.82 2.139-.512 4.291.771 4.824 2.906.062.252 1.527 6.289-.568 13.178-.523 1.725-2.109 2.838-3.824 2.838z" fill="#4c241d"/></g><g><path d="m228.787 175.425s5.267.544 10.208 4.247" fill="#b5a19c"/><path d="m238.991 183.671c-.834 0-1.676-.26-2.395-.799-3.928-2.943-8.201-3.467-8.244-3.471-2.186-.252-3.77-2.223-3.529-4.41.236-2.188 2.184-3.801 4.373-3.545.26.027 6.436.705 12.197 5.023 1.768 1.324 2.127 3.832.803 5.6-.785 1.049-1.988 1.602-3.205 1.602z" fill="#4c241d"/></g><g><path d="m228.787 159.425s5.267.544 10.208 4.247" fill="#b5a19c"/><path d="m238.991 167.671c-.834 0-1.676-.26-2.395-.799-3.928-2.943-8.201-3.467-8.244-3.471-2.186-.252-3.77-2.223-3.529-4.41.236-2.186 2.184-3.789 4.373-3.545.26.027 6.436.705 12.197 5.023 1.768 1.324 2.127 3.832.803 5.6-.785 1.049-1.988 1.602-3.205 1.602z" fill="#4c241d"/></g><g><path d="m224.787 223.425s5.267.544 10.208 4.247" fill="#b5a19c"/><path d="m234.991 231.671c-.834 0-1.676-.26-2.395-.799-3.928-2.943-8.201-3.467-8.244-3.471-2.186-.252-3.77-2.223-3.529-4.41.236-2.188 2.186-3.803 4.373-3.545.26.027 6.436.705 12.197 5.023 1.768 1.324 2.127 3.832.803 5.6-.785 1.049-1.988 1.602-3.205 1.602z" fill="#4c241d"/></g><path d="m68.001 119.817c-7.719 0-14-6.281-14-14s6.281-14 14-14 14 6.281 14 14-6.281 14-14 14zm0-20c-3.309 0-6 2.691-6 6s2.691 6 6 6 6-2.691 6-6-2.692-6-6-6z" fill="#4c241d"/></g></svg>